<svg width="230" height="54" viewBox="0 0 230 54" fill="none" xmlns="http://www.w3.org/2000/svg">
<path d="M194.299 13.2225C194.299 13.2225 199.002 0.78634 220.762 10.6923L226.81 16.3977L229.078 23.3454L225.887 27.0641L218.403 30.0144H216.563L215.806 36.7869L205.391 49.8282L183.969 50.4613L153.559 50.0393L150.872 48.3531L146.252 50.4613H136.507L134.156 48.6338L127.617 51.0924H118.81L110.696 47.087L107.19 43.854L105.593 47.7877L102.318 50.5987L73.0843 50.4573L69.8091 49.5436L66.534 50.4573L48.9894 50.316L44.0196 47.505L41.6465 49.8243L30.8094 50.3856L27.4343 52.9159L18.7346 53.3379L15.538 50.6683L14.7859 43.2289L11.0061 41.1964L3.10855 40.6529L0 36.761L0.756904 15.3247L4.28437 12.4441L11.3417 12.2331L14.5336 9.91389L15.538 2.67755L19.4915 0.288658H44.2743L48.3325 2.04449L49.5678 5.17592L49.9868 10.2025L54.5234 14.6857L55.5326 20.1961L73.7626 20.8749L79.5585 20.216L82.5837 8.50842L86.0279 6.68092L90.3122 6.89194L93.0852 8.50842L96.277 20.216L111.567 20.7356L113.779 21.9997L121.9 19.7521L132.316 21.2969L134.548 22.6327L138.195 20.6659L168.69 21.0879L172.218 22.5631L180.451 19.8935L191.288 22.7741L196.329 20.5484L194.313 14.835V13.2185L194.299 13.2225Z" fill="white"/>
<path d="M166.669 40.7783V45.5621H164.082L164.072 45.5501C164.058 45.5362 164.044 45.5203 164.027 45.5063C162.454 43.9317 160.881 42.353 159.307 40.7783H166.669Z" fill="#002134"/>
<path d="M38.6094 33.7172H46.0951V38.0948H38.6094V45.3949H32.4256V25.6089H47.7041V30.524H38.6094V33.7172Z" fill="#002134"/>
<path d="M50.3652 33.102H56.6228V45.373H50.3652V33.102Z" fill="#002134"/>
<path d="M66.4483 35.1366L59.3719 25.6587H66.5363L70.1471 30.8684L73.7436 25.6587H80.908L73.8031 35.1246L81.3032 45.373H74.0959L70.1328 39.552L66.1841 45.373H58.9768L66.4483 35.1366Z" fill="#002134"/>
<path d="M100.195 33.7172H107.681V38.0948H100.195V45.3949H94.0111V25.6089H109.29V30.524H100.195V33.7172Z" fill="#002134"/>
<path d="M157.92 43.9416C156.839 42.8885 155.754 41.8334 154.675 40.7783C153.752 39.8825 152.833 38.9867 151.914 38.0868C150.277 36.4943 148.639 34.8977 147.006 33.3031C146.085 32.4073 145.169 31.5114 144.248 30.6136C143.603 29.9845 142.958 29.3575 142.313 28.7284C141.384 27.8226 140.454 26.9168 139.528 26.011C139.466 25.9513 139.404 25.8916 139.342 25.8299C139.354 32.3476 139.366 38.8632 139.38 45.3829H145.638V35.7477C146.523 36.5281 147.411 37.3085 148.296 38.0868C148.401 38.1764 148.504 38.268 148.604 38.3556C149.522 39.1619 150.436 39.9701 151.355 40.7763C153.097 42.3072 154.835 43.8381 156.577 45.369H159.388C158.9 44.8912 158.41 44.4174 157.922 43.9396L157.92 43.9416Z" fill="#002134"/>
<path d="M134.051 41.2302C131.88 38.0888 129.762 35.0191 127.612 31.9076C127.805 31.8976 127.929 31.8837 128.05 31.8837C130.321 31.8837 132.592 31.8837 134.86 31.8837C135.055 31.8837 135.253 31.8439 135.346 32.0788C136.612 35.266 136.148 38.2819 134.049 41.2302H134.051Z" fill="#002134"/>
<path d="M112.708 29.8412C114.855 32.9468 116.975 36.0165 119.127 39.128C118.939 39.14 118.815 39.1519 118.691 39.1519C116.421 39.1519 114.15 39.1519 111.879 39.1559C111.625 39.1559 111.46 39.136 111.365 38.8871C110.158 35.7617 110.575 32.7955 112.577 29.9766C112.598 29.9447 112.631 29.9208 112.708 29.8412Z" fill="#F49B0D"/>
<path d="M122.785 46.1135C124.956 42.9701 127.079 39.8944 129.241 36.765C130.545 38.6502 131.806 40.4777 133.087 42.3271C130.366 44.8992 126.991 46.1752 122.785 46.1135Z" fill="#F49B0D"/>
<path d="M117.494 34.2686C116.192 32.3814 114.936 30.5599 113.657 28.7065C116.366 26.1344 119.746 24.8663 123.952 24.9161C121.783 28.0555 119.66 31.1292 117.494 34.2686Z" fill="#002134"/>
<path d="M134.534 30.6156H121.779C121.84 30.5041 121.879 30.4145 121.933 30.3369C123.081 28.6726 124.23 27.0104 125.37 25.3421C125.496 25.159 125.608 25.0833 125.88 25.1331C129.724 25.8438 132.599 27.6394 134.515 30.5121C134.527 30.53 134.525 30.5579 134.534 30.6156Z" fill="#F49B0D"/>
<path d="M112.196 40.422H124.966C124.89 40.5474 124.837 40.645 124.775 40.7345C123.642 42.3769 122.509 44.0193 121.379 45.6636C121.267 45.8268 121.191 45.9602 120.891 45.9045C117.047 45.1978 114.164 43.4121 112.234 40.5474C112.215 40.5195 112.213 40.4817 112.196 40.42V40.422Z" fill="#002134"/>
<path d="M41.5822 12.7666C35.3247 12.7626 29.0671 12.7626 22.8048 12.7666C18.6894 12.7686 15.5332 15.4123 15.5309 18.8583C15.5261 24.0919 15.5261 29.3276 15.5309 34.5632C15.5332 38.0092 18.6823 40.6489 22.8024 40.6549C25.2921 40.6569 27.7818 40.6589 30.2739 40.6589V37.8798C27.8104 37.8798 25.3492 37.8798 22.8881 37.8778C20.496 37.8758 18.8584 36.5002 18.856 34.5015C18.8512 29.3077 18.8489 24.1118 18.856 18.916C18.8584 16.9233 20.5079 15.5537 22.9024 15.5517C26.0038 15.5477 29.1028 15.5497 32.2018 15.5497C35.3009 15.5497 38.4261 15.5457 41.537 15.5517C43.6007 15.5556 45.2121 16.6386 45.4905 18.279C45.6143 19.0016 45.5548 19.7462 45.5548 20.4807V24.1198H48.8752C48.8752 22.3739 48.8776 20.6261 48.8752 18.8802C48.8728 15.4183 45.7238 12.7746 41.5822 12.7726V12.7666Z" fill="#002134"/>
<path d="M24.4067 10.2185H21.1339V5.16H24.4067V10.2185Z" fill="#F49B0D"/>
<path d="M12.4818 27.9619V30.7052H6.43846V27.9619H12.4818Z" fill="#F49B0D"/>
<path d="M24.4186 43.213V48.2635H21.1315V43.213H24.4186Z" fill="#F49B0D"/>
<path d="M33.6966 10.2085V5.16H36.9813V10.2085H33.6966Z" fill="#F49B0D"/>
<path d="M12.4723 20.2H6.43371V17.4508H12.4723V20.2Z" fill="#F49B0D"/>
<path d="M6.43846 33.2235H12.4675V35.9747H6.43846V33.2235Z" fill="#F49B0D"/>
<path d="M6.43846 22.7064H12.4651V25.4576H6.43846V22.7064Z" fill="#F49B0D"/>
<path d="M27.4248 5.15204H30.6952V10.2085H27.4248V5.15204Z" fill="#F49B0D"/>
<path d="M43.2817 5.16V10.2065H39.997V5.16H43.2817Z" fill="#F49B0D"/>
<path d="M41.6822 18.7826V24.0681H30.2739V34.6329H22.7286V18.7826H41.6822Z" fill="#F49B0D"/>
<path d="M190.329 40.5653V45.371H171.423V43.4758C180.37 37.203 183.764 34.4756 183.764 32.6402C183.764 31.3203 182.536 30.1816 180.972 30.1816C178.896 30.1816 177.054 31.6249 177.054 33.3987L171.965 31.9932C171.965 28.4218 175.971 25.2426 180.986 25.2426C186.001 25.2426 190.052 28.5572 190.052 32.4332C190.052 35.6621 186.734 38.7677 182.859 40.5653H190.331H190.329Z" fill="#002134"/>
<path d="M210.199 32.2878C210.199 34.5632 209.644 35.2461 202.494 45.3471H195.315L200.228 38.5368C200.052 38.5487 199.892 38.5606 199.716 38.5606C195.782 38.5606 192.376 35.5407 192.376 32.2261C192.376 28.386 196.265 25.2187 201.294 25.2187C202.941 25.2187 204.46 25.5571 205.757 26.1464C205.757 26.1464 205.752 26.1504 205.75 26.1524L200.285 30.7231C199.826 31.1093 199.826 31.7304 200.285 32.1166L200.851 32.5884C201.311 32.9746 202.056 32.9746 202.518 32.5884L207.983 28.0177C208.068 27.946 208.137 27.8684 208.19 27.7828C209.456 29.0091 210.201 30.5818 210.201 32.2878H210.199Z" fill="#002134"/>
<path d="M222.552 22.8497C222.281 22.9931 222.031 23.1921 221.733 23.2718C221.079 23.4469 220.407 23.1722 220.112 22.6507C219.822 22.135 219.584 21.5995 219.27 21.0959C218.089 19.2067 216.406 17.7017 214.226 16.5948C211.353 15.1356 208.244 14.5762 204.917 14.9863C203.996 15.0998 203.091 15.3367 202.192 15.5497C201.47 15.7189 200.871 15.6034 200.471 15.1535C199.947 14.5623 200.178 13.6704 200.999 13.4076C201.842 13.1389 202.718 12.9239 203.601 12.7686C206.026 12.3366 208.459 12.3705 210.863 12.8841C215.442 13.8615 218.991 16.0255 221.405 19.4376C221.9 20.1383 222.276 20.8988 222.659 21.6513C222.78 21.8882 222.74 22.1828 222.776 22.4516C222.702 22.585 222.628 22.7183 222.552 22.8537V22.8497Z" fill="#F49B0D"/>
<path d="M212.215 17.417C214.999 18.5457 217.099 20.419 218.282 22.999C218.484 23.439 218.441 23.857 218.077 24.2273C217.727 24.5837 217.268 24.725 216.728 24.6414C216.278 24.5717 215.93 24.3667 215.728 24.0163C215.509 23.6361 215.321 23.2419 215.088 22.8696C214.293 21.5956 213.141 20.5902 211.662 19.8736C209.332 18.7428 206.854 18.4721 204.25 19.1031C203.839 19.2027 203.441 19.3639 202.989 19.2982C202.389 19.2106 201.913 18.8165 201.818 18.3088C201.725 17.8151 202.025 17.2975 202.568 17.0885C203.36 16.7839 204.208 16.6247 205.064 16.5152C207.483 16.2066 209.803 16.4973 212.212 17.415L212.215 17.417Z" fill="#F49B0D"/>
<path d="M209.989 20.865C211.891 21.6274 213.183 22.792 213.912 24.3866C214.195 25.0077 213.852 25.6646 213.129 25.9194C212.441 26.1643 211.636 25.9095 211.317 25.3123C211.017 24.7509 210.689 24.2114 210.141 23.7874C208.823 22.7681 207.297 22.4556 205.56 22.8497C205.283 22.9114 204.995 22.9831 204.717 22.9731C204.046 22.9532 203.513 22.5153 203.422 21.9638C203.332 21.4104 203.713 20.8749 204.367 20.6858C206.138 20.1682 207.899 20.1742 209.651 20.7575C209.784 20.8013 209.92 20.845 209.989 20.8669V20.865Z" fill="#F49B0D"/>
<path d="M166.669 25.8318V30.6156H148.751C147.116 29.021 145.483 27.4264 143.846 25.8318H166.669Z" fill="#F49B0D"/>
<path d="M166.669 33.3031V38.0868H156.418C154.78 36.4943 153.147 34.8977 151.51 33.3031H166.669Z" fill="#002134"/>
<path d="M50.3652 25.6109H56.6228V30.5638H50.3652V25.6109Z" fill="#F49B0D"/>
<path d="M90.7597 42.6198V45.4805H84.5545V42.6198L86.1992 42.5143V37.4299L84.9972 36.3171V30.0164L85.5971 29.2201V18.7667L86.3373 18.3825H88.9722L89.7124 18.7667V29.2201L90.3146 30.0164V36.3171L89.1126 37.4299V42.5143L90.7597 42.6198Z" fill="#002134"/>
<path d="M86.4587 17.7455L86.5777 17.6838C86.5777 17.6838 86.2611 16.8377 87.6535 11.5941C89.046 16.8377 88.7294 17.6838 88.7294 17.6838L88.8484 17.7455H86.4539H86.4587Z" fill="#F49B0D"/>
<path d="M169.685 33.102L179.43 35.2839L177.583 38.0868L169.685 43.1692L167.502 39.8507L169.685 33.102Z" fill="white"/>
<path d="M192.376 36.765L196.903 39.1559L194.047 45.3471L191.695 44.3477L192.376 36.765Z" fill="white"/>
<path d="M122.785 31.8797L126.17 32.5446L127.613 35.2839V37.6031L123.371 39.1559L119.953 38.1366L118.806 35.9747V33.2235L122.785 31.8797Z" fill="white"/>
<path d="M83.1573 27.8664V34.6329L84.5545 38.0868V41.2302L82.1505 42.5202L77.6138 38.0868L75.2622 34.6329L81.9815 26.7098L83.1573 27.8664Z" fill="white"/>
<path d="M59.8027 29.3336L64.3394 35.3078C64.3394 35.3078 60.474 40.5753 59.8027 41.057C59.1315 41.5388 57.7867 40.6569 57.7867 40.6569V28.8896L59.8027 29.3336Z" fill="white"/>
</svg>
