<?xml version="1.0" encoding="UTF-8"?>
<svg id="Layer_2" data-name="Layer 2" xmlns="http://www.w3.org/2000/svg" viewBox="0 0 1920 1080">
  <defs>
    <style>
      .cls-1 {
        fill: #fff;
      }

      .cls-2 {
        fill: none;
        stroke: #f7931e;
        stroke-width: 9px;
      }

      .cls-3 {
        fill: #002134;
      }

      .cls-4 {
        fill: #f49b0d;
      }
    </style>
  </defs>
  <path class="cls-1" d="M1294.82,472.26s19.76-62.47,111.18-12.71l25.41,28.66,9.53,34.9-13.41,18.68-31.44,14.82h-7.73l-3.18,34.02-43.76,65.51-90,3.18-127.76-2.12-11.29-8.47-19.41,10.59h-40.94l-9.88-9.18-27.47,12.35h-37l-34.09-20.12-14.73-16.24-6.71,19.76-13.76,14.12-122.82-.71-13.76-4.59-13.76,4.59-73.71-.71-20.88-14.12-9.97,11.65-45.53,2.82-14.18,12.71-36.55,2.12-13.43-13.41-3.16-37.37-15.88-10.21-33.18-2.73-13.06-19.55,3.18-107.68,14.82-14.47,29.65-1.06,13.41-11.65,4.22-36.35,16.61-12h104.12l17.05,8.82,5.19,15.73,1.76,25.25,19.06,22.52,4.24,27.68,76.59,3.41,24.35-3.31,12.71-58.81,14.47-9.18,18,1.06,11.65,8.12,13.41,58.81,64.24,2.61,9.29,6.35,34.12-11.29,43.76,7.76,9.38,6.71,15.32-9.88,128.12,2.12,14.82,7.41,34.59-13.41,45.53,14.47,21.18-11.18-8.47-28.7v-8.12Z"/>
  <path class="cls-2" d="M567.73,674.38c-14.34,0-26-11.66-26-26v-22.68c-5.05-3.59-9.46-8-13.06-13.05h-22.67c-14.34,0-26-11.66-26-26v-13.82c0-2.15,.26-4.26,.78-6.32-.52-2.06-.78-4.18-.78-6.33v-13.78c0-2.14,.26-4.25,.77-6.29-.51-2.04-.77-4.14-.77-6.28v-13.82c0-2.12,.25-4.21,.76-6.24-.52-2.06-.78-4.18-.78-6.34v-13.81c0-14.34,11.66-26,26-26h22.67c3.6-5.07,8.03-9.49,13.1-13.1v-22.64c0-14.34,11.66-26,26-26h13.75c2.13,0,4.22,.25,6.26,.76,2.09-.53,4.24-.8,6.42-.8h13.74c2.17,0,4.3,.27,6.37,.79,2.03-.5,4.11-.75,6.23-.75h13.8c2.16,0,4.28,.26,6.34,.78,2.06-.52,4.17-.78,6.32-.78h13.8c14.34,0,26,11.66,26,26v22.72c14.62,10.47,23.49,27.63,23.5,46.16,0,2.61,0,5.23,0,7.85h6.55c2.15,0,4.26,.26,6.32,.78,1.72-.35,3.47-.53,5.23-.53h30.1c5.5,0,10.79,1.76,15.14,4.88,4.35-3.12,9.63-4.88,15.14-4.88h23.8v-8.62c0-5.2,1.55-10.23,4.42-14.5,.71-6.82,2.31-15.76,4.85-27.18,2.66-11.99,13.1-20.36,25.38-20.36s22.72,8.37,25.38,20.36c2.54,11.43,4.14,20.37,4.85,27.2,2.86,4.26,4.41,9.29,4.41,14.48v8.37h56.24c7.18,0,13.79,2.92,18.55,7.77,12.4-7.48,26.5-11.27,42.04-11.27,.46,0,.92,0,1.39,.01,2.31,.03,4.59,.37,6.81,1.01,.11,0,.21,0,.31,0,2.07,0,4.16,.23,6.23,.69,11.33,2.51,21.43,6.96,30.18,13.28,2.93-3.9,6.94-6.98,11.69-8.75,2.91-1.08,5.96-1.63,9.07-1.63s6.44,.62,9.44,1.79c3-1.18,6.2-1.79,9.49-1.79h95.89c8.35,0,15.8,3.96,20.56,10.1,11.29-8.46,25.12-13.05,39.58-13.05,15.92,0,30.94,5.63,42.58,15.72,6.34-5.58,13.68-9.77,21.68-12.45-1.16-2.58-1.98-5.31-2.41-8.12-.19-1.23-.31-2.47-.35-3.72-.17-.21-.33-.43-.49-.65-5.93-8-7.81-18.48-5.03-28.05,2.77-9.52,9.64-16.99,18.83-20.51,4.74-1.81,9.72-3.28,14.8-4.36,6.46-1.37,13.02-2.07,19.5-2.07,7.66,0,15.35,.97,22.85,2.89,26.34,6.73,46.61,21.83,60.24,44.88,2.83,4.78,4.87,9.59,6.51,13.46l.3,.71c2.25,5.28,2.4,9.85,2.47,12.05v.05c.37,4.48-.44,8.99-2.34,13.07l-.93,2.01c-2.03,4.37-5.22,8.08-9.24,10.73l-.1,.07c-1.59,1.16-4.91,3.57-9.75,5.12-2.67,.86-5.43,1.35-8.22,1.47-5.28,4.18-11.67,6.53-18.48,6.75-1.4,1.09-2.88,2.07-4.44,2.91,.49,3.1,.74,6.24,.74,9.39,0,18.07-3.68,24.29-32.35,72.69l-3.65,6.16c-4.66,7.87-13.23,12.75-22.37,12.75h-30.16c-3.58,0-7.1-.74-10.34-2.15-3.31,1.49-6.92,2.27-10.61,2.27h-79.43c-3.05,0-6.03-.53-8.85-1.55-3.45,1.64-7.24,2.51-11.12,2.51h-10.87c-3.83,0-7.58-.85-11.01-2.46-2.78,.99-5.72,1.51-8.72,1.51h-11.81c-7.09,0-13.95-2.95-18.84-8.08l-4.61-4.85c-4.5,7.76-12.91,12.99-22.51,12.99h-26.29c-8.79,0-16.58-4.39-21.29-11.09-13.59,9.81-29.4,14.77-47.19,14.77-.57,0-1.14,0-1.71-.02-2.23-.04-4.45-.37-6.61-.98-.12,0-.24,0-.35,0-2.03,0-4.08-.22-6.1-.67-23.25-5.11-41.05-18.1-52.92-38.62h-2.45v10.67c0,14.34-11.66,26-26,26h-25.98c-2.06,0-4.09-.24-6.07-.72-2.46,.75-5.02,1.14-7.59,1.14h-26.07c-2.65,0-5.29-.41-7.81-1.21-1.91,.44-3.86,.66-5.84,.66h-30.28c-6.15,0-12.01-2.19-16.62-6.01-4.6,3.82-10.46,6.01-16.62,6.01h-30.28c-1.66,0-3.31-.16-4.94-.48-1.63,.32-3.29,.48-4.95,.48h-26.29c-11.47,0-21.23-7.47-24.67-17.8-3.41,10.39-13.2,17.92-24.72,17.92h-25.98c-3.37,0-6.59-.64-9.54-1.81-3.87,9.5-13.21,16.21-24.09,16.21h-13.81Z"/>
  <g>
    <path class="cls-3" d="M1178.74,610.68v24.03h-10.87l-.04-.06c-.06-.07-.12-.15-.19-.22-6.61-7.91-13.22-15.84-19.83-23.75h30.93Z"/>
    <path class="cls-3" d="M640.72,559.18v16.03h31.45v21.99h-31.45v36.67h-25.98v-99.39h64.19v24.69h-38.21Z"/>
    <path class="cls-3" d="M690.11,572.12h26.29v61.64h-26.29v-61.64Z"/>
    <path class="cls-3" d="M757.68,582.34l-29.73-47.61h30.1l15.17,26.17,15.11-26.17h30.1l-29.85,47.55,31.51,51.48h-30.28l-16.65-29.24-16.59,29.24h-30.28l31.39-51.42Z"/>
    <path class="cls-3" d="M899.46,559.18v16.03h31.45v21.99h-31.45v36.67h-25.98v-99.39h64.19v24.69h-38.21Z"/>
    <path class="cls-3" d="M1141.98,626.57c-4.54-5.29-9.1-10.59-13.63-15.89-3.88-4.5-7.74-9-11.6-13.52-6.88-8-13.76-16.02-20.62-24.03-3.87-4.5-7.72-9-11.59-13.51-2.71-3.16-5.42-6.31-8.13-9.47-3.9-4.55-7.81-9.1-11.7-13.65-.26-.3-.52-.6-.78-.91,.05,32.74,.1,65.47,.16,98.22h26.29v-48.4c3.72,3.92,7.45,7.84,11.17,11.75,.44,.45,.87,.91,1.29,1.35,3.86,4.05,7.7,8.11,11.56,12.16,7.32,7.69,14.62,15.38,21.94,23.07h11.81c-2.05-2.4-4.11-4.78-6.16-7.18Z"/>
    <path class="cls-3" d="M1041.7,612.95c-9.12-15.78-18.02-31.2-27.05-46.83,.81-.05,1.33-.12,1.84-.12,9.54,0,19.08,0,28.61,0,.82,0,1.65-.2,2.04,.98,5.32,16.01,3.37,31.16-5.45,45.97Z"/>
    <path class="cls-4" d="M952.03,555.74c9.02,15.6,17.93,31.02,26.97,46.65-.79,.06-1.31,.12-1.83,.12-9.54,0-19.08,0-28.62,.02-1.07,0-1.76-.1-2.16-1.35-5.07-15.7-3.32-30.6,5.09-44.76,.09-.16,.23-.28,.55-.68Z"/>
    <path class="cls-4" d="M994.37,637.48c9.12-15.79,18.04-31.24,27.12-46.96,5.48,9.47,10.78,18.65,16.16,27.94-11.43,12.92-25.61,19.33-43.28,19.02Z"/>
    <path class="cls-3" d="M972.14,577.98c-5.47-9.48-10.75-18.63-16.12-27.94,11.38-12.92,25.58-19.29,43.25-19.04-9.11,15.77-18.03,31.21-27.13,46.98Z"/>
    <path class="cls-4" d="M1043.73,559.63h-53.59c.26-.56,.42-1.01,.65-1.4,4.82-8.36,9.65-16.71,14.44-25.09,.53-.92,1-1.3,2.14-1.05,16.15,3.57,28.23,12.59,36.28,27.02,.05,.09,.04,.23,.08,.52Z"/>
    <path class="cls-3" d="M949.88,608.89h53.65c-.32,.63-.54,1.12-.8,1.57-4.76,8.25-9.52,16.5-14.27,24.76-.47,.82-.79,1.49-2.05,1.21-16.15-3.55-28.26-12.52-36.37-26.91-.08-.14-.09-.33-.16-.64Z"/>
    <g>
      <path class="cls-3" d="M653.21,469.97c-26.29-.02-52.58-.02-78.89,0-17.29,.01-30.55,13.29-30.56,30.6-.02,26.29-.02,52.59,0,78.89,.01,17.31,13.24,30.57,30.55,30.6,10.46,.01,20.92,.02,31.39,.02v-13.96c-10.35,0-20.69,0-31.03-.01-10.05-.01-16.93-6.92-16.94-16.96-.02-26.09-.03-52.19,0-78.29,.01-10.01,6.94-16.89,17-16.9,13.03-.02,26.05-.01,39.07-.01s26.15-.02,39.22,.01c8.67,.02,15.44,5.46,16.61,13.7,.52,3.63,.27,7.37,.27,11.06v18.28h13.95c0-8.77,.01-17.55,0-26.32-.01-17.39-13.24-30.67-30.64-30.68Z"/>
      <path class="cls-4" d="M581.05,457.17h-13.75v-25.41h13.75v25.41Z"/>
      <path class="cls-4" d="M530.95,546.3v13.78h-25.39v-13.78h25.39Z"/>
      <path class="cls-4" d="M581.1,622.91v25.37h-13.81v-25.37h13.81Z"/>
      <path class="cls-4" d="M620.08,457.12v-25.36h13.8v25.36h-13.8Z"/>
      <path class="cls-4" d="M530.91,507.31h-25.37v-13.81h25.37v13.81Z"/>
      <path class="cls-4" d="M505.56,572.73h25.33v13.82h-25.33v-13.82Z"/>
      <path class="cls-4" d="M505.56,519.9h25.32v13.82h-25.32v-13.82Z"/>
      <path class="cls-4" d="M593.73,431.72h13.74v25.4h-13.74v-25.4Z"/>
      <path class="cls-4" d="M660.35,431.76v25.35h-13.8v-25.35h13.8Z"/>
      <polygon class="cls-4" points="653.63 500.19 653.63 526.74 605.7 526.74 605.7 579.81 574 579.81 574 500.19 653.63 500.19"/>
    </g>
    <g>
      <path class="cls-3" d="M1278.14,609.61v24.14h-79.43v-9.52c37.59-31.51,51.85-45.21,51.85-54.43,0-6.63-5.16-12.35-11.73-12.35-8.72,0-16.46,7.25-16.46,16.16l-21.38-7.06c0-17.94,16.83-33.91,37.9-33.91s38.09,16.65,38.09,36.12c0,16.22-13.94,31.82-30.22,40.85h31.39Z"/>
      <path class="cls-3" d="M1361.62,568.03c0,11.43-2.33,14.86-32.37,65.6h-30.16l20.64-34.21c-.74,.06-1.41,.12-2.15,.12-16.53,0-30.84-15.17-30.84-31.82,0-19.29,16.34-35.2,37.47-35.2,6.92,0,13.3,1.7,18.75,4.66,0,0-.02,.02-.03,.03l-22.96,22.96c-1.93,1.94-1.93,5.06,0,7l2.38,2.37c1.93,1.94,5.06,1.94,7,0l22.96-22.96c.36-.36,.65-.75,.87-1.18,5.32,6.16,8.45,14.06,8.45,22.63Z"/>
      <g>
        <path class="cls-4" d="M1413.52,520.62c-1.14,.72-2.19,1.72-3.44,2.12-2.75,.88-5.57-.5-6.81-3.12-1.22-2.59-2.22-5.28-3.54-7.81-4.96-9.49-12.03-17.05-21.19-22.61-12.07-7.33-25.13-10.14-39.11-8.08-3.87,.57-7.67,1.76-11.45,2.83-3.03,.85-5.55,.27-7.23-1.99-2.2-2.97-1.23-7.45,2.22-8.77,3.54-1.35,7.22-2.43,10.93-3.21,10.19-2.17,20.41-2,30.51,.58,19.24,4.91,34.15,15.78,44.29,32.92,2.08,3.52,3.66,7.34,5.27,11.12,.51,1.19,.34,2.67,.49,4.02-.31,.67-.62,1.34-.94,2.02Z"/>
        <path class="cls-4" d="M1370.09,493.33c11.7,5.67,20.52,15.08,25.49,28.04,.85,2.21,.67,4.31-.86,6.17-1.47,1.79-3.4,2.5-5.67,2.08-1.89-.35-3.35-1.38-4.2-3.14-.92-1.91-1.71-3.89-2.69-5.76-3.34-6.4-8.18-11.45-14.39-15.05-9.79-5.68-20.2-7.04-31.14-3.87-1.73,.5-3.4,1.31-5.3,.98-2.52-.44-4.52-2.42-4.92-4.97-.39-2.48,.87-5.08,3.15-6.13,3.33-1.53,6.89-2.33,10.49-2.88,10.16-1.55,19.91-.09,30.03,4.52Z"/>
        <path class="cls-4" d="M1360.74,510.65c7.99,3.83,13.42,9.68,16.48,17.69,1.19,3.12-.25,6.42-3.29,7.7-2.89,1.23-6.27-.05-7.61-3.05-1.26-2.82-2.64-5.53-4.94-7.66-5.54-5.12-11.95-6.69-19.25-4.71-1.16,.31-2.37,.67-3.54,.62-2.82-.1-5.06-2.3-5.44-5.07-.38-2.78,1.22-5.47,3.97-6.42,7.44-2.6,14.84-2.57,22.2,.36,.56,.22,1.13,.44,1.42,.55Z"/>
      </g>
    </g>
    <path class="cls-4" d="M1178.74,535.6v24.03h-75.28c-6.87-8.01-13.73-16.02-20.61-24.03h95.89Z"/>
    <path class="cls-3" d="M1178.74,573.13v24.03h-43.07c-6.88-8-13.74-16.02-20.62-24.03h63.69Z"/>
    <path class="cls-4" d="M690.11,534.49h26.29v24.88h-26.29v-24.88Z"/>
    <polygon class="cls-3" points="859.82 619.93 859.82 634.3 833.75 634.3 833.75 619.93 840.66 619.4 840.66 593.86 835.61 588.27 835.61 556.62 838.13 552.62 838.13 500.11 841.24 498.18 852.31 498.18 855.42 500.11 855.42 552.62 857.95 556.62 857.95 588.27 852.9 593.86 852.9 619.4 859.82 619.93"/>
    <path class="cls-4" d="M841.75,494.98l.5-.31s-1.33-4.25,4.52-30.59c5.85,26.34,4.52,30.59,4.52,30.59l.5,.31h-10.06Z"/>
  </g>
  <polygon class="cls-1" points="1191.41 572.12 1232.35 583.08 1224.59 597.16 1191.41 622.69 1182.24 606.02 1191.41 572.12"/>
  <polygon class="cls-1" points="1286.74 590.52 1305.76 602.53 1293.76 633.63 1283.88 628.61 1286.74 590.52"/>
  <polygon class="cls-1" points="994.37 565.98 1008.59 569.32 1014.65 583.08 1014.65 594.73 996.83 602.53 982.47 597.41 977.65 586.55 977.65 572.73 994.37 565.98"/>
  <polygon class="cls-1" points="827.88 545.82 827.88 579.81 833.75 597.16 833.75 612.95 823.65 619.43 804.59 597.16 794.71 579.81 822.94 540.01 827.88 545.82"/>
  <path class="cls-1" d="M729.76,553.19l19.06,30.01s-16.24,26.46-19.06,28.88c-2.82,2.42-8.47-2.01-8.47-2.01v-59.11l8.47,2.23Z"/>
</svg>